<svg id="my-svg" width="100%" xmlns="http://www.w3.org/2000/svg" xmlns:xlink="http://www.w3.org/1999/xlink" class="classDiagram" style="max-width: 303.297px; background-color: white;" viewBox="0 0 303.296875 294" role="graphics-document document" aria-roledescription="class"><style>#my-svg{font-family:"trebuchet ms",verdana,arial,sans-serif;font-size:16px;fill:#333;}@keyframes edge-animation-frame{from{stroke-dashoffset:0;}}@keyframes dash{to{stroke-dashoffset:0;}}#my-svg .edge-animation-slow{stroke-dasharray:9,5!important;stroke-dashoffset:900;animation:dash 50s linear infinite;stroke-linecap:round;}#my-svg .edge-animation-fast{stroke-dasharray:9,5!important;stroke-dashoffset:900;animation:dash 20s linear infinite;stroke-linecap:round;}#my-svg .error-icon{fill:#552222;}#my-svg .error-text{fill:#552222;stroke:#552222;}#my-svg .edge-thickness-normal{stroke-width:1px;}#my-svg .edge-thickness-thick{stroke-width:3.5px;}#my-svg .edge-pattern-solid{stroke-dasharray:0;}#my-svg .edge-thickness-invisible{stroke-width:0;fill:none;}#my-svg .edge-pattern-dashed{stroke-dasharray:3;}#my-svg .edge-pattern-dotted{stroke-dasharray:2;}#my-svg .marker{fill:#333333;stroke:#333333;}#my-svg .marker.cross{stroke:#333333;}#my-svg svg{font-family:"trebuchet ms",verdana,arial,sans-serif;font-size:16px;}#my-svg p{margin:0;}#my-svg g.classGroup text{fill:#9370DB;stroke:none;font-family:"trebuchet ms",verdana,arial,sans-serif;font-size:10px;}#my-svg g.classGroup text .title{font-weight:bolder;}#my-svg .cluster-label text{fill:#333;}#my-svg .cluster-label span{color:#333;}#my-svg .cluster-label span p{background-color:transparent;}#my-svg .cluster rect{fill:#ffffde;stroke:#aaaa33;stroke-width:1px;}#my-svg .cluster text{fill:#333;}#my-svg .cluster span{color:#333;}#my-svg .nodeLabel,#my-svg .edgeLabel{color:#131300;}#my-svg .noteLabel .nodeLabel,#my-svg .noteLabel .edgeLabel{color:black;}#my-svg .edgeLabel .label rect{fill:#ECECFF;}#my-svg .label text{fill:#131300;}#my-svg .labelBkg{background:#ECECFF;}#my-svg .edgeLabel .label span{background:#ECECFF;}#my-svg .classTitle{font-weight:bolder;}#my-svg .node rect,#my-svg .node circle,#my-svg .node ellipse,#my-svg .node polygon,#my-svg .node path{fill:#ECECFF;stroke:#9370DB;stroke-width:1;}#my-svg .divider{stroke:#9370DB;stroke-width:1;}#my-svg g.clickable{cursor:pointer;}#my-svg g.classGroup rect{fill:#ECECFF;stroke:#9370DB;}#my-svg g.classGroup line{stroke:#9370DB;stroke-width:1;}#my-svg .classLabel .box{stroke:none;stroke-width:0;fill:#ECECFF;opacity:0.5;}#my-svg .classLabel .label{fill:#9370DB;font-size:10px;}#my-svg .relation{stroke:#333333;stroke-width:1;fill:none;}#my-svg .dashed-line{stroke-dasharray:3;}#my-svg .dotted-line{stroke-dasharray:1 2;}#my-svg [id$="-compositionStart"],#my-svg .composition{fill:#333333!important;stroke:#333333!important;stroke-width:1;}#my-svg [id$="-compositionEnd"],#my-svg .composition{fill:#333333!important;stroke:#333333!important;stroke-width:1;}#my-svg [id$="-dependencyStart"],#my-svg .dependency{fill:#333333!important;stroke:#333333!important;stroke-width:1;}#my-svg [id$="-dependencyEnd"],#my-svg .dependency{fill:#333333!important;stroke:#333333!important;stroke-width:1;}#my-svg [id$="-extensionStart"],#my-svg .extension{fill:transparent!important;stroke:#333333!important;stroke-width:1;}#my-svg [id$="-extensionEnd"],#my-svg .extension{fill:transparent!important;stroke:#333333!important;stroke-width:1;}#my-svg [id$="-aggregationStart"],#my-svg .aggregation{fill:transparent!important;stroke:#333333!important;stroke-width:1;}#my-svg [id$="-aggregationEnd"],#my-svg .aggregation{fill:transparent!important;stroke:#333333!important;stroke-width:1;}#my-svg [id$="-lollipopStart"],#my-svg .lollipop{fill:#ECECFF!important;stroke:#333333!important;stroke-width:1;}#my-svg [id$="-lollipopEnd"],#my-svg .lollipop{fill:#ECECFF!important;stroke:#333333!important;stroke-width:1;}#my-svg .edgeTerminals{font-size:11px;line-height:initial;}#my-svg .classTitleText{text-anchor:middle;font-size:18px;fill:#333;}#my-svg .edgeLabel[data-look="neo"]{background-color:rgba(232,232,232, 0.8);text-align:center;}#my-svg .edgeLabel[data-look="neo"] p{background-color:rgba(232,232,232, 0.8);}#my-svg .edgeLabel[data-look="neo"] rect{opacity:0.5;background-color:rgba(232,232,232, 0.8);fill:rgba(232,232,232, 0.8);}#my-svg .label-icon{display:inline-block;height:1em;overflow:visible;vertical-align:-0.125em;}#my-svg .node .label-icon path{fill:currentColor;stroke:revert;stroke-width:revert;}#my-svg .node .neo-node{stroke:#9370DB;}#my-svg [data-look="neo"].node rect,#my-svg [data-look="neo"].cluster rect,#my-svg [data-look="neo"].node polygon{stroke:#9370DB;filter:drop-shadow(1px 2px 2px rgba(185, 185, 185, 1));}#my-svg [data-look="neo"].node path{stroke:#9370DB;stroke-width:1px;}#my-svg [data-look="neo"].node .outer-path{filter:drop-shadow(1px 2px 2px rgba(185, 185, 185, 1));}#my-svg [data-look="neo"].node .neo-line path{stroke:#9370DB;filter:none;}#my-svg [data-look="neo"].node circle{stroke:#9370DB;filter:drop-shadow(1px 2px 2px rgba(185, 185, 185, 1));}#my-svg [data-look="neo"].node circle .state-start{fill:#000000;}#my-svg [data-look="neo"].icon-shape .icon{fill:#9370DB;filter:drop-shadow(1px 2px 2px rgba(185, 185, 185, 1));}#my-svg [data-look="neo"].icon-shape .icon-neo path{stroke:#9370DB;filter:drop-shadow(1px 2px 2px rgba(185, 185, 185, 1));}#my-svg :root{--mermaid-font-family:"trebuchet ms",verdana,arial,sans-serif;}</style><g><defs><marker id="my-svg_class-aggregationStart" class="marker aggregation class" refX="18" refY="7" markerWidth="190" markerHeight="240" orient="auto"><path d="M 18,7 L9,13 L1,7 L9,1 Z"/></marker></defs><defs><marker id="my-svg_class-aggregationEnd" class="marker aggregation class" refX="1" refY="7" markerWidth="20" markerHeight="28" orient="auto"><path d="M 18,7 L9,13 L1,7 L9,1 Z"/></marker></defs><defs><marker id="my-svg_class-aggregationStart-margin" class="marker aggregation class" refX="15" refY="7" markerWidth="190" markerHeight="240" orient="auto" markerUnits="userSpaceOnUse"><path d="M 18,7 L9,13 L1,7 L9,1 Z" style="stroke-width: 2;"/></marker></defs><defs><marker id="my-svg_class-aggregationEnd-margin" class="marker aggregation class" refX="1" refY="7" markerWidth="20" markerHeight="28" orient="auto" markerUnits="userSpaceOnUse"><path d="M 18,7 L9,13 L1,7 L9,1 Z" style="stroke-width: 2;"/></marker></defs><defs><marker id="my-svg_class-extensionStart" class="marker extension class" refX="18" refY="7" markerWidth="20" markerHeight="28" orient="auto" markerUnits="userSpaceOnUse"><path d="M 1,7 L18,13 V 1 Z"/></marker></defs><defs><marker id="my-svg_class-extensionEnd" class="marker extension class" refX="1" refY="7" markerWidth="20" markerHeight="28" orient="auto"><path d="M 1,1 V 13 L18,7 Z"/></marker></defs><marker id="my-svg_class-extensionStart-margin" class="marker extension class" refX="18" refY="7" markerWidth="20" markerHeight="28" orient="auto" markerUnits="userSpaceOnUse" viewBox="0 0 20 14"><polygon points="10,7 18,13 18,1" style="stroke-width: 2; stroke-dasharray: 0;"/></marker><defs><marker id="my-svg_class-extensionEnd-margin" class="marker extension class" refX="9" refY="7" markerWidth="20" markerHeight="28" orient="auto" markerUnits="userSpaceOnUse" viewBox="0 0 20 14"><polygon points="10,1 10,13 18,7" style="stroke-width: 2; stroke-dasharray: 0;"/></marker></defs><defs><marker id="my-svg_class-compositionStart" class="marker composition class" refX="18" refY="7" markerWidth="190" markerHeight="240" orient="auto"><path d="M 18,7 L9,13 L1,7 L9,1 Z"/></marker></defs><defs><marker id="my-svg_class-compositionEnd" class="marker composition class" refX="1" refY="7" markerWidth="20" markerHeight="28" orient="auto"><path d="M 18,7 L9,13 L1,7 L9,1 Z"/></marker></defs><defs><marker id="my-svg_class-compositionStart-margin" class="marker composition class" refX="15" refY="7" markerWidth="190" markerHeight="240" orient="auto" markerUnits="userSpaceOnUse"><path viewBox="0 0 15 15" d="M 18,7 L9,13 L1,7 L9,1 Z" style="stroke-width: 0;"/></marker></defs><defs><marker id="my-svg_class-compositionEnd-margin" class="marker composition class" refX="3.5" refY="7" markerWidth="20" markerHeight="28" orient="auto" markerUnits="userSpaceOnUse"><path d="M 18,7 L9,13 L1,7 L9,1 Z" style="stroke-width: 0;"/></marker></defs><defs><marker id="my-svg_class-dependencyStart" class="marker dependency class" refX="6" refY="7" markerWidth="190" markerHeight="240" orient="auto"><path d="M 5,7 L9,13 L1,7 L9,1 Z"/></marker></defs><defs><marker id="my-svg_class-dependencyEnd" class="marker dependency class" refX="13" refY="7" markerWidth="20" markerHeight="28" orient="auto"><path d="M 18,7 L9,13 L14,7 L9,1 Z"/></marker></defs><defs><marker id="my-svg_class-dependencyStart-margin" class="marker dependency class" refX="4" refY="7" markerWidth="190" markerHeight="240" orient="auto" markerUnits="userSpaceOnUse"><path d="M 5,7 L9,13 L1,7 L9,1 Z" style="stroke-width: 0;"/></marker></defs><defs><marker id="my-svg_class-dependencyEnd-margin" class="marker dependency class" refX="16" refY="7" markerWidth="20" markerHeight="28" orient="auto" markerUnits="userSpaceOnUse"><path d="M 18,7 L9,13 L14,7 L9,1 Z" style="stroke-width: 0;"/></marker></defs><defs><marker id="my-svg_class-lollipopStart" class="marker lollipop class" refX="13" refY="7" markerWidth="190" markerHeight="240" orient="auto"><circle fill="transparent" cx="7" cy="7" r="6"/></marker></defs><defs><marker id="my-svg_class-lollipopEnd" class="marker lollipop class" refX="1" refY="7" markerWidth="190" markerHeight="240" orient="auto"><circle fill="transparent" cx="7" cy="7" r="6"/></marker></defs><defs><marker id="my-svg_class-lollipopStart-margin" class="marker lollipop class" refX="13" refY="7" markerWidth="190" markerHeight="240" orient="auto" markerUnits="userSpaceOnUse"><circle fill="transparent" cx="7" cy="7" r="6" stroke-width="2"/></marker></defs><defs><marker id="my-svg_class-lollipopEnd-margin" class="marker lollipop class" refX="1" refY="7" markerWidth="190" markerHeight="240" orient="auto" markerUnits="userSpaceOnUse"><circle fill="transparent" cx="7" cy="7" r="6" stroke-width="2"/></marker></defs><g class="root"><g class="clusters"/><g class="edgePaths"><path d="M125.35,88.025L119.272,92.854C113.194,97.683,101.038,107.342,94.961,116.338C88.883,125.333,88.883,133.667,88.883,137.833L88.883,142" id="my-svg-id_Shape_Circle_1" class="edge-thickness-normal edge-pattern-solid relation" style=";;;" data-edge="true" data-et="edge" data-id="id_Shape_Circle_1" data-points="W3sieCI6MTM4Ljg1NTQ2ODc1LCJ5Ijo3Ny4yOTQxMTIxOTcxNTU3fSx7IngiOjg4Ljg4MjgxMjUsInkiOjExN30seyJ4Ijo4OC44ODI4MTI1LCJ5IjoxNDJ9XQ==" data-look="classic" marker-start="url(#my-svg_class-extensionStart)"/><path d="M221.064,88.025L227.142,92.854C233.22,97.683,245.376,107.342,251.453,121.338C257.531,135.333,257.531,153.667,257.531,162.833L257.531,172" id="my-svg-id_Shape_Square_2" class="edge-thickness-normal edge-pattern-solid relation" style=";;;" data-edge="true" data-et="edge" data-id="id_Shape_Square_2" data-points="W3sieCI6MjA3LjU1ODU5Mzc1LCJ5Ijo3Ny4yOTQxMTIxOTcxNTU3fSx7IngiOjI1Ny41MzEyNSwieSI6MTE3fSx7IngiOjI1Ny41MzEyNSwieSI6MTcyfV0=" data-look="classic" marker-start="url(#my-svg_class-extensionStart)"/></g><g class="edgeLabels"><g class="edgeLabel"><g class="label" data-id="id_Shape_Circle_1" transform="translate(0, 0)"><foreignObject width="0" height="0"><div xmlns="http://www.w3.org/1999/xhtml" class="labelBkg" style="display: table-cell; white-space: nowrap; line-height: 1.5; max-width: 200px; text-align: center;"><span class="edgeLabel"></span></div></foreignObject></g></g><g class="edgeLabel"><g class="label" data-id="id_Shape_Square_2" transform="translate(0, 0)"><foreignObject width="0" height="0"><div xmlns="http://www.w3.org/1999/xhtml" class="labelBkg" style="display: table-cell; white-space: nowrap; line-height: 1.5; max-width: 200px; text-align: center;"><span class="edgeLabel"></span></div></foreignObject></g></g></g><g class="nodes"><g class="node default" id="my-svg-classId-Shape-0" data-look="classic" transform="translate(173.20703125, 50)"><g class="basic label-container outer-path"><path d="M-34.3515625 -42 L34.3515625 -42 L34.3515625 42 L-34.3515625 42" stroke="none" stroke-width="0" fill="#ECECFF" style=""/><path d="M-34.3515625 -42 C-10.288440416114515 -42, 13.77468166777097 -42, 34.3515625 -42 M-34.3515625 -42 C-7.79059516419041 -42, 18.77037217161918 -42, 34.3515625 -42 M34.3515625 -42 C34.3515625 -20.262686042577403, 34.3515625 1.4746279148451933, 34.3515625 42 M34.3515625 -42 C34.3515625 -13.92674171932877, 34.3515625 14.146516561342459, 34.3515625 42 M34.3515625 42 C7.507341671711103 42, -19.336879156577794 42, -34.3515625 42 M34.3515625 42 C16.05097235428055 42, -2.249617791438901 42, -34.3515625 42 M-34.3515625 42 C-34.3515625 13.532865269255577, -34.3515625 -14.934269461488846, -34.3515625 -42 M-34.3515625 42 C-34.3515625 8.617891022968784, -34.3515625 -24.76421795406243, -34.3515625 -42" stroke="#9370DB" stroke-width="1.3" fill="none" stroke-dasharray="0 0" style=""/></g><g class="annotation-group text" transform="translate(0, -18)"/><g class="label-group text" transform="translate(-22.3515625, -18)"><g class="label" style="font-weight: bolder" transform="translate(0,-12)"><foreignObject width="44.703125" height="24"><div xmlns="http://www.w3.org/1999/xhtml" style="display: table-cell; white-space: nowrap; line-height: 1.5; max-width: 89px; text-align: center;"><span class="nodeLabel markdown-node-label" style=""><p>Shape</p></span></div></foreignObject></g></g><g class="members-group text" transform="translate(-22.3515625, 30)"/><g class="methods-group text" transform="translate(-22.3515625, 60)"/><g class="divider" style=""><path d="M-34.3515625 6 C-17.439952992643576 6.000246154880252, -0.5283434852871522 6.000492309760506, 34.3515625 6.001 M-34.3515625 6 C-7.10350023597228 6.000396605864203, 20.14456202805544 6.000793211728405, 34.3515625 6.001" stroke="#9370DB" stroke-width="1.3" fill="none" stroke-dasharray="0 0" style=""/></g><g class="divider" style=""><path d="M-34.3515625 24 C-8.103807584869024 24.000382046011957, 18.143947330261952 24.00076409202391, 34.3515625 24.001 M-34.3515625 24 C-10.428609449272415 24.000348207640492, 13.49434360145517 24.000696415280988, 34.3515625 24.001" stroke="#9370DB" stroke-width="1.3" fill="none" stroke-dasharray="0 0" style=""/></g></g><g class="node default" id="my-svg-classId-Circle-1" data-look="classic" transform="translate(88.8828125, 214)"><g class="basic label-container outer-path"><path d="M-80.8828125 -72 L80.8828125 -72 L80.8828125 72 L-80.8828125 72" stroke="none" stroke-width="0" fill="#ECECFF" style=""/><path d="M-80.8828125 -72 C-33.52467476646302 -72, 13.833462967073956 -72, 80.8828125 -72 M-80.8828125 -72 C-17.21571837334099 -72, 46.45137575331802 -72, 80.8828125 -72 M80.8828125 -72 C80.8828125 -22.6636280456514, 80.8828125 26.6727439086972, 80.8828125 72 M80.8828125 -72 C80.8828125 -26.25847463135915, 80.8828125 19.4830507372817, 80.8828125 72 M80.8828125 72 C20.2564761661069 72, -40.3698601677862 72, -80.8828125 72 M80.8828125 72 C28.360061103371805 72, -24.16269029325639 72, -80.8828125 72 M-80.8828125 72 C-80.8828125 17.82377712114279, -80.8828125 -36.35244575771442, -80.8828125 -72 M-80.8828125 72 C-80.8828125 30.40147267623655, -80.8828125 -11.197054647526897, -80.8828125 -72" stroke="#9370DB" stroke-width="1.3" fill="none" stroke-dasharray="0 0" style=""/></g><g class="annotation-group text" transform="translate(0, -48)"/><g class="label-group text" transform="translate(-21.75, -48)"><g class="label" style="font-weight: bolder" transform="translate(0,-12)"><foreignObject width="43.5" height="24"><div xmlns="http://www.w3.org/1999/xhtml" style="display: table-cell; white-space: nowrap; line-height: 1.5; max-width: 89px; text-align: center;"><span class="nodeLabel markdown-node-label" style=""><p>Circle</p></span></div></foreignObject></g></g><g class="members-group text" transform="translate(-68.8828125, 0)"><g class="label" style="" transform="translate(0,-12)"><foreignObject width="105.140625" height="24"><div xmlns="http://www.w3.org/1999/xhtml" style="display: table-cell; white-space: nowrap; line-height: 1.5; max-width: 150px; text-align: center;"><span class="nodeLabel markdown-node-label" style=""><p>+double radius</p></span></div></foreignObject></g></g><g class="methods-group text" transform="translate(-68.8828125, 48)"><g class="label" style="" transform="translate(0,-12)"><foreignObject width="116.015625" height="24"><div xmlns="http://www.w3.org/1999/xhtml" style="display: table-cell; white-space: nowrap; line-height: 1.5; max-width: 157px; text-align: center;"><span class="nodeLabel markdown-node-label" style=""><p>+area() : double</p></span></div></foreignObject></g></g><g class="divider" style=""><path d="M-80.8828125 -24 C-43.43538738052101 -23.999768508141827, -5.987962261042014 -23.999537016283657, 80.8828125 -23.999 M-80.8828125 -24 C-21.37345805053043 -23.99963212608087, 38.13589639893914 -23.999264252161737, 80.8828125 -23.999" stroke="#9370DB" stroke-width="1.3" fill="none" stroke-dasharray="0 0" style=""/></g><g class="divider" style=""><path d="M-80.8828125 24 C-45.13214400140266 24.000221002876838, -9.381475502805316 24.000442005753676, 80.8828125 24.001 M-80.8828125 24 C-37.19886713969699 24.00027004467334, 6.485078220606013 24.000540089346675, 80.8828125 24.001" stroke="#9370DB" stroke-width="1.3" fill="none" stroke-dasharray="0 0" style=""/></g></g><g class="node default" id="my-svg-classId-Square-2" data-look="classic" transform="translate(257.53125, 214)"><g class="basic label-container outer-path"><path d="M-37.765625 -42 L37.765625 -42 L37.765625 42 L-37.765625 42" stroke="none" stroke-width="0" fill="#ECECFF" style=""/><path d="M-37.765625 -42 C-18.051773811994202 -42, 1.6620773760115952 -42, 37.765625 -42 M-37.765625 -42 C-12.702892102700421 -42, 12.359840794599158 -42, 37.765625 -42 M37.765625 -42 C37.765625 -18.368393650411303, 37.765625 5.263212699177394, 37.765625 42 M37.765625 -42 C37.765625 -16.59889827135462, 37.765625 8.802203457290759, 37.765625 42 M37.765625 42 C22.223417952049466 42, 6.681210904098933 42, -37.765625 42 M37.765625 42 C8.600886297034194 42, -20.563852405931613 42, -37.765625 42 M-37.765625 42 C-37.765625 21.410160013104132, -37.765625 0.8203200262082646, -37.765625 -42 M-37.765625 42 C-37.765625 14.146818906364928, -37.765625 -13.706362187270145, -37.765625 -42" stroke="#9370DB" stroke-width="1.3" fill="none" stroke-dasharray="0 0" style=""/></g><g class="annotation-group text" transform="translate(0, -18)"/><g class="label-group text" transform="translate(-25.765625, -18)"><g class="label" style="font-weight: bolder" transform="translate(0,-12)"><foreignObject width="51.53125" height="24"><div xmlns="http://www.w3.org/1999/xhtml" style="display: table-cell; white-space: nowrap; line-height: 1.5; max-width: 94px; text-align: center;"><span class="nodeLabel markdown-node-label" style=""><p>Square</p></span></div></foreignObject></g></g><g class="members-group text" transform="translate(-25.765625, 30)"/><g class="methods-group text" transform="translate(-25.765625, 60)"/><g class="divider" style=""><path d="M-37.765625 6 C-20.50679250037258 6.000228499230446, -3.2479600007451594 6.000456998460892, 37.765625 6.001 M-37.765625 6 C-9.253519317457197 6.0003774875390326, 19.258586365085606 6.000754975078065, 37.765625 6.001" stroke="#9370DB" stroke-width="1.3" fill="none" stroke-dasharray="0 0" style=""/></g><g class="divider" style=""><path d="M-37.765625 24 C-11.674704433991444 24.00034543212996, 14.416216132017112 24.00069086425992, 37.765625 24.001 M-37.765625 24 C-13.931753859315851 24.000315549804096, 9.902117281368298 24.000631099608196, 37.765625 24.001" stroke="#9370DB" stroke-width="1.3" fill="none" stroke-dasharray="0 0" style=""/></g></g></g></g></g><defs><filter id="my-svg-drop-shadow" height="130%" width="130%"><feDropShadow dx="4" dy="4" stdDeviation="0" flood-opacity="0.06" flood-color="#000000"/></filter></defs><defs><filter id="my-svg-drop-shadow-small" height="150%" width="150%"><feDropShadow dx="2" dy="2" stdDeviation="0" flood-opacity="0.06" flood-color="#000000"/></filter></defs></svg>